# Blender 3.5.0
# www.blender.org
o watchtower_collider
v -7.004239 0.010473 -5.361140
v -4.456285 32.144920 -2.764188
v -7.004239 0.010473 -5.992887
v -4.456285 32.144920 -3.395935
v -6.372492 0.010473 -5.361140
v -3.824539 32.144920 -2.764188
v -6.372492 0.010473 -5.992887
v -3.824539 32.144920 -3.395935
v -6.396992 0.010475 6.962135
v -3.800040 32.144920 4.414182
v -7.028739 0.010475 6.962135
v -4.431787 32.144920 4.414182
v -6.396992 0.010475 6.330388
v -3.800040 32.144920 3.782435
v -7.028739 0.010475 6.330388
v -4.431787 32.144920 3.782435
v 5.941710 0.010475 6.358239
v 3.481568 32.144920 3.775952
v 5.920692 0.010475 6.989636
v 3.460550 32.144920 4.407349
v 5.310313 0.010475 6.337221
v 2.850171 32.144920 3.754934
v 5.289295 0.010475 6.968618
v 2.829153 32.144920 4.386331
v 5.322386 -0.087521 -5.983816
v 2.642101 32.046921 -3.523674
v 5.953784 -0.087521 -5.962798
v 3.273498 32.046921 -3.502655
v 5.301368 -0.087521 -5.352419
v 2.621083 32.046921 -2.892276
v 5.932765 -0.087521 -5.331400
v 3.252480 32.046921 -2.871258
v -4.008150 32.144924 4.001329
v 2.934980 32.144920 4.001329
v -4.008150 32.436180 4.001329
v 2.934980 32.436176 4.001329
v -4.008150 32.144924 -3.042912
v 2.934980 32.144920 -3.042913
v -4.008150 32.436180 -3.042912
v 2.934980 32.436176 -3.042913
v -4.130708 32.410404 -3.098439
v -3.875528 32.410404 -3.098439
v -4.130707 32.410404 4.151005
v -3.875527 32.410404 4.151005
v -4.130708 35.349216 -3.098439
v -3.875527 35.349216 -3.098439
v -4.130707 35.349216 4.151005
v -3.875526 35.349216 4.151005
v 2.828492 32.410404 -3.098439
v 3.083672 32.410404 -3.098439
v 2.828493 32.410404 4.151005
v 3.083673 32.410404 4.151005
v 2.828492 35.349216 -3.098439
v 3.083672 35.349216 -3.098439
v 2.828493 35.349216 4.151005
v 3.083673 35.349216 4.151005
v -4.139051 32.410404 4.133925
v -4.139051 32.410404 3.878746
v 3.110392 32.410404 4.133924
v 3.110392 32.410404 3.878744
v -4.139051 35.349216 4.133925
v -4.139051 35.349216 3.878745
v 3.110392 35.349216 4.133924
v 3.110392 35.349216 3.878744
v -4.139051 32.410404 -2.835819
v -4.139051 32.410404 -3.090999
v 3.110392 32.410404 -2.835819
v 3.110392 32.410404 -3.091000
v -4.139051 35.349216 -2.835819
v -4.139051 35.349216 -3.090999
v 3.110392 35.349216 -2.835819
v 3.110392 35.349216 -3.091000
vn -0.9969 0.0790 -0.0000
vn -0.0000 0.0806 -0.9968
vn 0.9969 -0.0790 -0.0000
vn -0.0000 -0.0806 0.9968
vn -0.0000 -1.0000 -0.0000
vn -0.0000 1.0000 -0.0000
vn -0.0000 0.0790 0.9969
vn -0.9968 0.0806 -0.0000
vn -0.0000 -0.0790 -0.9969
vn 0.9968 -0.0806 -0.0000
vn 0.9963 0.0789 0.0332
vn -0.0332 0.0775 0.9964
vn -0.9963 -0.0789 -0.0332
vn 0.0332 -0.0775 -0.9964
vn 0.0332 0.0790 -0.9963
vn 0.9962 0.0806 0.0332
vn -0.0332 -0.0790 0.9963
vn -0.9962 -0.0806 -0.0332
vn -0.0000 -0.0000 1.0000
vn -0.0000 -0.0000 -1.0000
vn -1.0000 -0.0000 -0.0000
vn 1.0000 -0.0000 -0.0000
s 0
f 1//1 2//1 4//1 3//1
f 3//2 4//2 8//2 7//2
f 7//3 8//3 6//3 5//3
f 5//4 6//4 2//4 1//4
f 3//5 7//5 5//5 1//5
f 8//6 4//6 2//6 6//6
f 9//7 10//7 12//7 11//7
f 11//8 12//8 16//8 15//8
f 15//9 16//9 14//9 13//9
f 13//10 14//10 10//10 9//10
f 11//5 15//5 13//5 9//5
f 16//6 12//6 10//6 14//6
f 17//11 18//11 20//11 19//11
f 19//12 20//12 24//12 23//12
f 23//13 24//13 22//13 21//13
f 21//14 22//14 18//14 17//14
f 19//5 23//5 21//5 17//5
f 24//6 20//6 18//6 22//6
f 25//15 26//15 28//15 27//15
f 27//16 28//16 32//16 31//16
f 31//17 32//17 30//17 29//17
f 29//18 30//18 26//18 25//18
f 27//5 31//5 29//5 25//5
f 32//6 28//6 26//6 30//6
f 33//19 34//19 36//19 35//19
f 35//6 36//6 40//6 39//6
f 39//20 40//20 38//20 37//20
f 37//5 38//5 34//5 33//5
f 35//21 39//21 37//21 33//21
f 40//22 36//22 34//22 38//22
f 41//5 42//5 44//5 43//5
f 43//19 44//19 48//19 47//19
f 47//6 48//6 46//6 45//6
f 45//20 46//20 42//20 41//20
f 43//21 47//21 45//21 41//21
f 48//22 44//22 42//22 46//22
f 49//5 50//5 52//5 51//5
f 51//19 52//19 56//19 55//19
f 55//6 56//6 54//6 53//6
f 53//20 54//20 50//20 49//20
f 51//21 55//21 53//21 49//21
f 56//22 52//22 50//22 54//22
f 57//5 58//5 60//5 59//5
f 59//22 60//22 64//22 63//22
f 63//6 64//6 62//6 61//6
f 61//21 62//21 58//21 57//21
f 59//19 63//19 61//19 57//19
f 64//20 60//20 58//20 62//20
f 65//5 66//5 68//5 67//5
f 67//22 68//22 72//22 71//22
f 71//6 72//6 70//6 69//6
f 69//21 70//21 66//21 65//21
f 67//19 71//19 69//19 65//19
f 72//20 68//20 66//20 70//20
