# Blender 3.5.0
# www.blender.org
o watchtower_stair
v 2.476278 32.859234 -0.438279
v 2.476278 32.696579 -0.584260
v 0.579959 32.859234 -0.438279
v 0.579959 32.696579 -0.584260
v 0.579959 32.533649 -0.438279
v 2.476278 32.533649 -0.438279
v 0.579959 32.859234 -0.438279
v 2.476278 32.859234 -0.438279
v 0.579959 32.696579 -0.584260
v 2.476278 32.696579 -0.584260
v 0.579959 32.533649 -0.438279
v 2.476278 32.533649 -0.438279
v 2.476278 30.703999 -0.438279
v 2.476278 30.541349 -0.584260
v 0.579959 30.703999 -0.438279
v 0.579959 30.541349 -0.584260
v 0.579959 30.378412 -0.438279
v 2.476278 30.378412 -0.438279
v 0.579959 30.703999 -0.438279
v 2.476278 30.703999 -0.438279
v 0.579959 30.541349 -0.584260
v 2.476278 30.541349 -0.584260
v 0.579959 30.378412 -0.438279
v 2.476278 30.378412 -0.438279
v 2.476278 28.548479 -0.438279
v 2.476278 28.385830 -0.584261
v 0.579959 28.548479 -0.438279
v 0.579959 28.385830 -0.584261
v 0.579959 28.223179 -0.438279
v 2.476278 28.223179 -0.438279
v 0.579959 28.548479 -0.438279
v 2.476278 28.548479 -0.438279
v 0.579959 28.385830 -0.584261
v 2.476278 28.385830 -0.584261
v 0.579959 28.223179 -0.438279
v 2.476278 28.223179 -0.438279
v 2.476278 26.392956 -0.438280
v 2.476278 26.230310 -0.584261
v 0.579959 26.392956 -0.438280
v 0.579959 26.230310 -0.584261
v 0.579959 26.067373 -0.438280
v 2.476278 26.067373 -0.438280
v 0.579959 26.392956 -0.438280
v 2.476278 26.392956 -0.438280
v 0.579959 26.230310 -0.584261
v 2.476278 26.230310 -0.584261
v 0.579959 26.067373 -0.438280
v 2.476278 26.067373 -0.438280
v 2.476278 24.237722 -0.438280
v 2.476278 24.075073 -0.584261
v 0.579959 24.237722 -0.438280
v 0.579959 24.075073 -0.584261
v 0.579959 23.912138 -0.438280
v 2.476278 23.912138 -0.438280
v 0.579959 24.237722 -0.438280
v 2.476278 24.237722 -0.438280
v 0.579959 24.075073 -0.584261
v 2.476278 24.075073 -0.584261
v 0.579959 23.912138 -0.438280
v 2.476278 23.912138 -0.438280
v 2.476278 22.082201 -0.438280
v 2.476278 21.919554 -0.584261
v 0.579959 22.082201 -0.438280
v 0.579959 21.919554 -0.584261
v 0.579959 21.756907 -0.438280
v 2.476278 21.756907 -0.438280
v 0.579959 22.082201 -0.438280
v 2.476278 22.082201 -0.438280
v 0.579959 21.919554 -0.584261
v 2.476278 21.919554 -0.584261
v 0.579959 21.756907 -0.438280
v 2.476278 21.756907 -0.438280
v 2.476278 19.926966 -0.438278
v 2.476278 19.764320 -0.584261
v 0.579959 19.926966 -0.438278
v 0.579959 19.764320 -0.584261
v 0.579959 19.601671 -0.438278
v 2.476278 19.601671 -0.438278
v 0.579959 19.926966 -0.438278
v 2.476278 19.926966 -0.438278
v 0.579959 19.764320 -0.584261
v 2.476278 19.764320 -0.584261
v 0.579959 19.601671 -0.438278
v 2.476278 19.601671 -0.438278
v 2.476278 17.771446 -0.438279
v 2.476278 17.608797 -0.584260
v 0.579959 17.771446 -0.438279
v 0.579959 17.608797 -0.584260
v 0.579959 17.445864 -0.438279
v 2.476278 17.445864 -0.438279
v 0.579959 17.771446 -0.438279
v 2.476278 17.771446 -0.438279
v 0.579959 17.608797 -0.584260
v 2.476278 17.608797 -0.584260
v 0.579959 17.445864 -0.438279
v 2.476278 17.445864 -0.438279
v 2.476278 15.616785 -0.438279
v 2.476278 15.454137 -0.584260
v 0.579959 15.616785 -0.438279
v 0.579959 15.454137 -0.584260
v 0.579959 15.291202 -0.438279
v 2.476278 15.291202 -0.438279
v 0.579959 15.616785 -0.438279
v 2.476278 15.616785 -0.438279
v 0.579959 15.454137 -0.584260
v 2.476278 15.454137 -0.584260
v 0.579959 15.291202 -0.438279
v 2.476278 15.291202 -0.438279
v 2.476278 13.461265 -0.438279
v 2.476278 13.298616 -0.584260
v 0.579959 13.461265 -0.438279
v 0.579959 13.298616 -0.584260
v 0.579959 13.135967 -0.438279
v 2.476278 13.135967 -0.438279
v 0.579959 13.461265 -0.438279
v 2.476278 13.461265 -0.438279
v 0.579959 13.298616 -0.584260
v 2.476278 13.298616 -0.584260
v 0.579959 13.135967 -0.438279
v 2.476278 13.135967 -0.438279
v 2.476278 11.306029 -0.438279
v 2.476278 11.143380 -0.584261
v 0.579959 11.306029 -0.438279
v 0.579959 11.143380 -0.584261
v 0.579959 10.980445 -0.438279
v 2.476278 10.980445 -0.438279
v 0.579959 11.306029 -0.438279
v 2.476278 11.306029 -0.438279
v 0.579959 11.143380 -0.584261
v 2.476278 11.143380 -0.584261
v 0.579959 10.980445 -0.438279
v 2.476278 10.980445 -0.438279
v 2.476278 9.150509 -0.438280
v 2.476278 8.987860 -0.584261
v 0.579959 9.150509 -0.438280
v 0.579959 8.987860 -0.584261
v 0.579959 8.824924 -0.438280
v 2.476278 8.824924 -0.438280
v 0.579959 9.150509 -0.438280
v 2.476278 9.150509 -0.438280
v 0.579959 8.987860 -0.584261
v 2.476278 8.987860 -0.584261
v 0.579959 8.824924 -0.438280
v 2.476278 8.824924 -0.438280
v 2.476278 6.994987 -0.438280
v 2.476278 6.832340 -0.584261
v 0.579959 6.994987 -0.438280
v 0.579959 6.832340 -0.584261
v 0.579959 6.669689 -0.438278
v 2.476278 6.669689 -0.438278
v 0.579959 6.994987 -0.438280
v 2.476278 6.994987 -0.438280
v 0.579959 6.832340 -0.584261
v 2.476278 6.832340 -0.584261
v 0.579959 6.669689 -0.438278
v 2.476278 6.669689 -0.438278
v 2.476278 4.839752 -0.438278
v 2.476278 4.677105 -0.584259
v 0.579959 4.839752 -0.438278
v 0.579959 4.677105 -0.584259
v 0.579959 4.514454 -0.438278
v 2.476278 4.514454 -0.438278
v 0.579959 4.839752 -0.438278
v 2.476278 4.839752 -0.438278
v 0.579959 4.677105 -0.584259
v 2.476278 4.677105 -0.584259
v 0.579959 4.514454 -0.438278
v 2.476278 4.514454 -0.438278
v 2.476278 2.684518 -0.438278
v 2.476278 2.521869 -0.584260
v 0.579959 2.684518 -0.438278
v 0.579959 2.521869 -0.584260
v 0.579959 2.358932 -0.438278
v 2.476278 2.358932 -0.438278
v 0.579959 2.684518 -0.438278
v 2.476278 2.684518 -0.438278
v 0.579959 2.521869 -0.584260
v 2.476278 2.521869 -0.584260
v 0.579959 2.358932 -0.438278
v 2.476278 2.358932 -0.438278
v 2.305009 33.804947 -0.403222
v 2.369666 33.804947 -0.605527
v 2.327998 -0.077919 -0.402933
v 2.392655 -0.077919 -0.605238
v 2.582028 33.804947 -0.606676
v 2.605305 -0.077919 -0.606100
v 2.648696 33.804947 -0.404946
v 2.671686 -0.077919 -0.404370
v 2.648696 33.804947 -0.404946
v 2.477427 33.804947 -0.279081
v 2.671686 -0.077919 -0.404370
v 2.500417 -0.077919 -0.278791
v 2.305009 33.804947 -0.403222
v 2.327998 -0.077919 -0.402933
v 0.399782 33.804947 -0.403510
v 0.464152 33.804947 -0.605240
v 0.407541 -0.115565 -0.397760
v 0.472198 -0.115565 -0.599490
v 0.675939 33.804947 -0.606102
v 0.683698 -0.115565 -0.600352
v 0.742320 33.804947 -0.404946
v 0.750079 -0.115565 -0.399484
v 0.742320 33.804947 -0.404946
v 0.571626 33.804947 -0.279943
v 0.750079 -0.115565 -0.399484
v 0.579385 -0.115565 -0.274194
v 0.399782 33.804947 -0.403510
v 0.407541 -0.115565 -0.397760
vn -0.0000 0.6679 -0.7442
vn -0.0000 -0.0000 1.0000
vn -0.0000 -0.6673 -0.7448
vn -0.0000 -0.6679 -0.7442
vn -0.0000 0.6680 -0.7442
vn -0.0000 -0.6680 -0.7442
vn -0.9525 -0.0006 -0.3044
vn -0.7649 -0.0003 -0.6441
vn -0.3852 -0.0003 -0.9228
vn 0.3764 0.0003 -0.9264
vn 0.7589 0.0005 -0.6512
vn 0.9495 0.0006 -0.3138
vn 0.9499 0.0006 -0.3126
vn 0.5922 0.0004 0.8058
vn 0.2400 0.0003 0.9708
vn 0.5916 0.0004 0.8062
vn -0.2312 -0.0001 0.9729
vn -0.5843 -0.0004 0.8115
vn -0.9527 -0.0003 -0.3040
vn -0.7646 -0.0002 -0.6445
vn -0.9525 -0.0003 -0.3046
vn -0.3846 -0.0002 -0.9231
vn 0.3769 -0.0000 -0.9262
vn 0.7587 -0.0000 -0.6514
vn 0.9495 0.0002 -0.3137
vn 0.9495 0.0002 -0.3138
vn 0.5908 0.0003 0.8068
vn 0.2397 -0.0000 0.9708
vn 0.5917 0.0003 0.8061
vn -0.2306 0.0001 0.9730
vn -0.5838 -0.0000 0.8119
vt 0.351382 0.445598
vt 0.351382 0.448325
vt 0.383177 0.445598
vt 0.383177 0.448325
vt 0.456682 0.266865
vt 0.488477 0.266865
vt 0.456682 0.272324
vt 0.488477 0.272324
vt 0.466309 0.402646
vt 0.434513 0.402646
vt 0.466309 0.405378
vt 0.434513 0.405378
vt 0.460838 0.277949
vt 0.460838 0.280676
vt 0.492634 0.277949
vt 0.492634 0.280676
vt 0.218371 0.489934
vt 0.250167 0.489934
vt 0.218371 0.495393
vt 0.250167 0.495393
vt 0.496790 0.424815
vt 0.464995 0.424815
vt 0.496790 0.427547
vt 0.464995 0.427547
vt 0.257166 0.494091
vt 0.257166 0.496818
vt 0.288961 0.494091
vt 0.288961 0.496818
vt 0.212829 0.506561
vt 0.244625 0.506561
vt 0.212829 0.512015
vt 0.244625 0.512015
vt 0.345768 0.498248
vt 0.313972 0.498248
vt 0.345768 0.500975
vt 0.313972 0.500975
vt 0.437284 0.507946
vt 0.437284 0.510673
vt 0.469080 0.507946
vt 0.469080 0.510673
vt 0.474694 0.510717
vt 0.506489 0.510717
vt 0.474694 0.516176
vt 0.506489 0.516176
vt 0.530043 0.433128
vt 0.498248 0.433128
vt 0.530043 0.435860
vt 0.498248 0.435860
vt 0.501019 0.316744
vt 0.501019 0.319471
vt 0.532814 0.316744
vt 0.532814 0.319471
vt 0.502404 0.422044
vt 0.534200 0.422044
vt 0.502404 0.427503
vt 0.534200 0.427503
vt 0.243239 0.517645
vt 0.211443 0.517645
vt 0.243239 0.520377
vt 0.211443 0.520377
vt 0.273792 0.291804
vt 0.273792 0.294531
vt 0.305588 0.291804
vt 0.305588 0.294531
vt 0.290419 0.143553
vt 0.322214 0.143553
vt 0.290419 0.149007
vt 0.322214 0.149007
vt 0.320829 0.167107
vt 0.289033 0.167107
vt 0.320829 0.169834
vt 0.289033 0.169834
vt 0.290419 0.154637
vt 0.290419 0.157364
vt 0.322214 0.154637
vt 0.322214 0.157364
vt 0.226684 0.336141
vt 0.258480 0.336141
vt 0.226684 0.341595
vt 0.258480 0.341595
vt 0.342997 0.289033
vt 0.311201 0.289033
vt 0.342997 0.291760
vt 0.311201 0.291760
vt 0.264094 0.338912
vt 0.264094 0.341639
vt 0.295889 0.338912
vt 0.295889 0.341639
vt 0.356924 0.216986
vt 0.388719 0.216986
vt 0.356924 0.222445
vt 0.388719 0.222445
vt 0.391490 0.077047
vt 0.359695 0.077047
vt 0.391490 0.079779
vt 0.359695 0.079779
vt 0.366623 0.208672
vt 0.366623 0.211400
vt 0.398418 0.208672
vt 0.398418 0.211400
vt 0.229455 0.390176
vt 0.261251 0.390176
vt 0.229455 0.395636
vt 0.261251 0.395636
vt 0.402575 0.377707
vt 0.370779 0.377707
vt 0.402575 0.380439
vt 0.370779 0.380439
vt 0.376321 0.200359
vt 0.376321 0.203086
vt 0.408117 0.200359
vt 0.408117 0.203086
vt 0.266865 0.394333
vt 0.298660 0.394333
vt 0.266865 0.399787
vt 0.298660 0.399787
vt 0.409502 0.323671
vt 0.377707 0.323671
vt 0.409502 0.326398
vt 0.377707 0.326398
vt 0.304274 0.398490
vt 0.304274 0.401217
vt 0.336069 0.398490
vt 0.336069 0.401217
vt 0.394333 0.216986
vt 0.426129 0.216986
vt 0.394333 0.222445
vt 0.426129 0.222445
vt 0.416430 0.192046
vt 0.384634 0.192046
vt 0.416430 0.194778
vt 0.384634 0.194778
vt 0.391562 0.308430
vt 0.391562 0.311157
vt 0.423358 0.308430
vt 0.423358 0.311157
vt 0.240540 0.415116
vt 0.272335 0.415116
vt 0.240540 0.420575
vt 0.272335 0.420575
vt 0.309744 0.415116
vt 0.277949 0.415116
vt 0.309744 0.417848
vt 0.277949 0.417848
vt 0.404032 0.208672
vt 0.404032 0.211400
vt 0.435827 0.208672
vt 0.435827 0.211400
vt 0.308430 0.437284
vt 0.340226 0.437284
vt 0.308430 0.442739
vt 0.340226 0.442739
vt 0.284805 0.151866
vt 0.253009 0.151866
vt 0.284805 0.154593
vt 0.253009 0.154593
vt 0.253009 0.160179
vt 0.253009 0.162906
vt 0.284805 0.160179
vt 0.284805 0.162906
vt 0.253009 0.175420
vt 0.284805 0.175420
vt 0.253009 0.180874
vt 0.284805 0.180874
vt 0.284805 0.186504
vt 0.253009 0.186504
vt 0.284805 0.189231
vt 0.253009 0.189231
vt 0.253009 0.194817
vt 0.253009 0.197544
vt 0.284805 0.194817
vt 0.284805 0.197544
vt 0.253009 0.203130
vt 0.284805 0.203130
vt 0.253009 0.208589
vt 0.284805 0.208589
vt 0.279263 0.143553
vt 0.247467 0.143553
vt 0.279263 0.146285
vt 0.247467 0.146285
vt 0.005000 0.005005
vt 0.005000 0.008397
vt 0.060215 0.111686
vt 0.573114 0.005000
vt 0.573114 0.008392
vt 0.059829 0.679799
vt 0.056655 0.111686
vt 0.573114 0.013313
vt 0.056264 0.679799
vt 0.005000 0.013323
vt 0.573114 0.016696
vt 0.005000 0.016705
vt 0.071725 0.846062
vt 0.068854 0.846062
vt 0.072111 0.277949
vt 0.069240 0.277949
vt 0.065963 0.846062
vt 0.066349 0.277949
vt 0.005000 0.021723
vt 0.005000 0.025105
vt 0.050247 0.233612
vt 0.573744 0.021626
vt 0.573744 0.025009
vt 0.050112 0.802357
vt 0.046697 0.233612
vt 0.573746 0.031325
vt 0.046566 0.802357
vt 0.005000 0.031421
vt 0.573746 0.034698
vt 0.005000 0.034789
vt 0.041226 0.940909
vt 0.038363 0.940909
vt 0.041354 0.372165
vt 0.038494 0.372165
vt 0.035482 0.940909
vt 0.035612 0.372165
s 1
f 1/1/1 2/2/1 3/3/1
f 2/2/1 4/4/1 3/3/1
f 5/5/2 6/6/2 7/7/2
f 6/6/2 8/8/2 7/7/2
f 9/9/3 10/10/3 11/11/3
f 10/10/3 12/12/3 11/11/3
f 13/13/1 14/14/1 15/15/1
f 14/14/1 16/16/1 15/15/1
f 17/17/2 18/18/2 19/19/2
f 18/18/2 20/20/2 19/19/2
f 21/21/3 22/22/3 23/23/3
f 22/22/3 24/24/3 23/23/3
f 25/25/1 26/26/1 27/27/1
f 26/26/1 28/28/1 27/27/1
f 29/29/2 30/30/2 31/31/2
f 30/30/2 32/32/2 31/31/2
f 33/33/4 34/34/4 35/35/4
f 34/34/4 36/36/4 35/35/4
f 37/37/5 38/38/5 39/39/1
f 38/38/5 40/40/1 39/39/1
f 41/41/2 42/42/2 43/43/2
f 42/42/2 44/44/2 43/43/2
f 45/45/3 46/46/3 47/47/3
f 46/46/3 48/48/3 47/47/3
f 49/49/5 50/50/5 51/51/1
f 50/50/5 52/52/1 51/51/1
f 53/53/2 54/54/2 55/55/2
f 54/54/2 56/56/2 55/55/2
f 57/57/3 58/58/3 59/59/3
f 58/58/3 60/60/3 59/59/3
f 61/61/1 62/62/1 63/63/5
f 62/62/1 64/64/5 63/63/5
f 65/65/2 66/66/2 67/67/2
f 66/66/2 68/68/2 67/67/2
f 69/69/4 70/70/4 71/71/4
f 70/70/4 72/72/4 71/71/4
f 73/73/5 74/74/5 75/75/5
f 74/74/5 76/76/5 75/75/5
f 77/77/2 78/78/2 79/79/2
f 78/78/2 80/80/2 79/79/2
f 81/81/6 82/82/6 83/83/6
f 82/82/6 84/84/6 83/83/6
f 85/85/1 86/86/1 87/87/1
f 86/86/1 88/88/1 87/87/1
f 89/89/2 90/90/2 91/91/2
f 90/90/2 92/92/2 91/91/2
f 93/93/3 94/94/3 95/95/3
f 94/94/3 96/96/3 95/95/3
f 97/97/5 98/98/1 99/99/1
f 98/98/1 100/100/1 99/99/1
f 101/101/2 102/102/2 103/103/2
f 102/102/2 104/104/2 103/103/2
f 105/105/3 106/106/3 107/107/3
f 106/106/3 108/108/3 107/107/3
f 109/109/1 110/110/1 111/111/1
f 110/110/1 112/112/1 111/111/1
f 113/113/2 114/114/2 115/115/2
f 114/114/2 116/116/2 115/115/2
f 117/117/4 118/118/4 119/119/4
f 118/118/4 120/120/4 119/119/4
f 121/121/1 122/122/1 123/123/1
f 122/122/1 124/124/1 123/123/1
f 125/125/2 126/126/2 127/127/2
f 126/126/2 128/128/2 127/127/2
f 129/129/3 130/130/3 131/131/3
f 130/130/3 132/132/3 131/131/3
f 133/133/1 134/134/1 135/135/1
f 134/134/1 136/136/1 135/135/1
f 137/137/2 138/138/2 139/139/2
f 138/138/2 140/140/2 139/139/2
f 141/141/3 142/142/3 143/143/3
f 142/142/3 144/144/3 143/143/3
f 145/145/5 146/146/5 147/147/1
f 146/146/5 148/148/1 147/147/1
f 149/149/2 150/150/2 151/151/2
f 150/150/2 152/152/2 151/151/2
f 153/153/4 154/154/4 155/155/4
f 154/154/4 156/156/4 155/155/4
f 157/157/5 158/158/5 159/159/1
f 158/158/5 160/160/1 159/159/1
f 161/161/2 162/162/2 163/163/2
f 162/162/2 164/164/2 163/163/2
f 165/165/4 166/166/4 167/167/4
f 166/166/4 168/168/4 167/167/4
f 169/169/1 170/170/1 171/171/1
f 170/170/1 172/172/1 171/171/1
f 173/173/2 174/174/2 175/175/2
f 174/174/2 176/176/2 175/175/2
f 177/177/3 178/178/3 179/179/3
f 178/178/3 180/180/3 179/179/3
f 181/181/7 182/182/8 183/184/7
f 183/184/7 182/182/8 184/185/9
f 182/183/8 185/187/10 184/186/9
f 184/186/9 185/187/10 186/189/11
f 185/188/10 187/191/12 186/190/11
f 186/190/11 187/191/12 188/192/13
f 189/193/14 190/194/15 191/195/16
f 191/195/16 190/194/15 192/196/17
f 190/194/15 193/197/18 192/196/17
f 192/196/17 193/197/18 194/198/18
f 195/199/19 196/200/20 197/202/21
f 197/202/21 196/200/20 198/203/22
f 196/201/20 199/205/23 198/204/22
f 198/204/22 199/205/23 200/207/24
f 199/206/23 201/209/25 200/208/24
f 200/208/24 201/209/25 202/210/26
f 203/211/27 204/212/28 205/213/29
f 205/213/29 204/212/28 206/214/30
f 204/212/28 207/215/31 206/214/30
f 206/214/30 207/215/31 208/216/31
